<svg xmlns="http://www.w3.org/2000/svg" width="156.192" height="117.144" viewBox="0 0 156.192 117.144">
  <g id="cctv" transform="translate(0 -64.002)">
    <g id="Group_29" data-name="Group 29" transform="translate(0 64.002)">
      <g id="Group_28" data-name="Group 28" transform="translate(0 0)">
        <g id="Path_91" data-name="Path 91" transform="translate(0 -64.002)" fill="#fff">
          <path d="M 16.27009773254395 179.8452606201172 L 3.25407600402832 179.8452606201172 C 2.176596879959106 179.8452606201172 1.299992680549622 178.9674530029297 1.299992680549622 177.8884582519531 L 1.299992680549622 145.3193054199219 C 1.299992680549622 144.2416839599609 2.158326148986816 143.3975524902344 3.254096984863281 143.3975372314453 L 16.26978492736816 143.3975372314453 C 17.36553382873535 143.3975372314453 18.22386741638184 144.2416839599609 18.22386741638184 145.3193054199219 L 18.22386741638184 155.1132354736328 L 18.22386741638184 156.4132385253906 L 19.52386856079102 156.4132385253906 L 43.58549118041992 156.4132385253906 L 44.28242874145508 156.4132385253906 L 44.6682014465332 155.8328094482422 L 49.62176513671875 148.3792877197266 L 50.13303375244141 147.6099548339844 L 49.57476425170898 146.8740386962891 C 47.79584503173828 144.5290832519531 46.85557556152344 141.8676605224609 46.85557556152344 139.1775207519531 C 46.85557556152344 136.4201812744141 47.76532745361328 133.6892395019531 49.41722106933594 131.4877471923828 L 52.77976226806641 127.0005798339844 L 53.65845108032227 125.827995300293 L 52.38957595825195 125.0952224731445 L 33.77784729003906 114.347038269043 C 29.80180549621582 112.0522842407227 27.3320140838623 107.7709732055664 27.3320140838623 103.1736831665039 C 27.3320140838623 100.5137023925781 28.13772201538086 97.95453643798828 29.66201400756836 95.77280426025391 L 46.75749206542969 71.33382415771484 C 48.05926513671875 69.47087097167969 49.8760986328125 67.92903137207031 52.01199340820313 66.87445068359375 C 54.09528350830078 65.84584808349609 56.42564010620117 65.30216217041016 58.75111770629883 65.30216217041016 C 61.22453308105469 65.30216217041016 63.61249160766602 65.92115783691406 65.65684509277344 67.09226226806641 L 153.90576171875 117.5649719238281 C 154.5332641601563 117.9230575561523 154.9106140136719 118.5951995849609 154.8916168212891 119.3197250366211 C 154.8705749511719 120.0411148071289 154.4563751220703 120.6923904418945 153.8107604980469 121.0154495239258 L 142.0867004394531 126.8820571899414 L 141.1916656494141 127.3299331665039 L 141.3957672119141 128.3097686767578 C 141.7228393554688 129.8798217773438 141.8751831054688 131.1483001708984 141.8751831054688 132.3017425537109 C 141.8751831054688 144.1559906005859 132.2402191162109 153.8001403808594 120.3972396850586 153.8001403808594 C 120.239387512207 153.8001403808594 120.0603866577148 153.7763519287109 119.8531188964844 153.748779296875 C 119.6920166015625 153.7273712158203 119.5094299316406 153.7030792236328 119.3167419433594 153.6885070800781 L 118.4455337524414 153.6226806640625 L 118.0555114746094 154.4044647216797 L 115.6464538574219 159.2332916259766 C 115.4078521728516 159.7106475830078 114.9759902954102 160.0749053955078 114.4616317749023 160.2322692871094 C 114.2799377441406 160.2863616943359 114.0905990600586 160.3137817382813 113.8988494873047 160.3137817382813 C 113.5544509887695 160.3137817382813 113.2175521850586 160.2238922119141 112.9245758056641 160.0538330078125 L 85.22869873046875 144.0596160888672 L 84.12116241455078 143.4200286865234 L 83.46357727050781 144.5169982910156 L 79.88825988769531 150.4812164306641 C 77.45880889892578 154.5372467041016 73.01313781738281 157.0566558837891 68.28591156005859 157.0566558837891 C 67.3414306640625 157.0566558837891 66.36199188232422 156.8611755371094 65.43972015380859 156.6609649658203 L 64.57338714599609 156.4729156494141 L 64.08194732666016 157.2107391357422 L 58.74828338623047 165.2185821533203 C 55.36199188232422 170.3023223876953 49.69376373291016 173.33740234375 43.5858039855957 173.33740234375 L 19.5241584777832 173.33740234375 L 18.22415924072266 173.33740234375 L 18.22415924072266 174.6374053955078 L 18.22415924072266 177.8884582519531 C 18.22415924072266 178.9674530029297 17.34757614135742 179.8452606201172 16.27009773254395 179.8452606201172 Z M 5.207847118377686 147.3056945800781 L 5.207847118377686 148.6056976318359 L 5.207847118377686 174.6374359130859 L 5.207847118377686 175.9374237060547 L 6.507846832275391 175.9374237060547 L 13.01570129394531 175.9374237060547 L 14.31570148468018 175.9374237060547 L 14.31570148468018 174.6374359130859 L 14.31570148468018 148.6056976318359 L 14.31570148468018 147.3056945800781 L 13.01570129394531 147.3056945800781 L 6.507846832275391 147.3056945800781 L 5.207847118377686 147.3056945800781 Z M 18.22386741638184 160.3311614990234 L 18.22386741638184 161.6311645507813 L 18.22386741638184 168.1390380859375 L 18.22386741638184 169.4390411376953 L 19.52386856079102 169.4390411376953 L 43.58549118041992 169.4390411376953 C 48.38397216796875 169.4390411376953 52.83684539794922 167.0557708740234 55.49695205688477 163.0637664794922 L 60.17611694335938 156.0448455810547 L 60.93244934082031 154.9103240966797 L 59.76317977905273 154.2089233398438 L 54.17509841918945 150.8569030761719 L 53.11205673217773 150.21923828125 L 52.42459869384766 151.2507781982422 L 47.91853332519531 158.0121765136719 C 46.95420074462891 159.4649963378906 45.33486938476563 160.3311614990234 43.58549118041992 160.3311614990234 L 19.52386856079102 160.3311614990234 L 18.22386741638184 160.3311614990234 Z M 41.7164306640625 85.44632720947266 L 41.03340911865234 86.42186737060547 L 32.86359786987305 98.09043121337891 C 31.80120086669922 99.609619140625 31.2398681640625 101.3913269042969 31.2398681640625 103.2435531616211 C 31.2398681640625 106.4423675537109 32.95984649658203 109.4222869873047 35.72857666015625 111.0203857421875 L 111.8824920654297 154.9589233398438 L 113.0784072875977 155.64892578125 L 113.6952209472656 154.4136962890625 L 123.787223815918 134.2040710449219 L 124.334114074707 133.1089324951172 L 123.2738037109375 132.4972381591797 L 42.74795150756836 86.04142761230469 L 41.7164306640625 85.44632720947266 Z M 57.06690979003906 127.8432846069336 L 56.37543106079102 128.7651977539063 L 52.54265975952148 133.8752899169922 C 51.39503479003906 135.41064453125 50.76372146606445 137.3064880371094 50.76372146606445 139.21533203125 C 50.76372146606445 142.3241119384766 52.41951370239258 145.2475128173828 55.08493041992188 146.8447265625 L 63.33684539794922 151.7951965332031 C 64.74930572509766 152.6448211669922 66.40726470947266 153.0942993164063 68.13020324707031 153.0942993164063 C 71.61103820800781 153.0942993164063 74.83245086669922 151.3325958251953 76.53728485107422 148.4966735839844 L 80.05519866943359 142.6333618164063 L 80.73555755615234 141.4993896484375 L 79.59014129638672 140.8385162353516 L 58.06509780883789 128.4192047119141 L 57.06690979003906 127.8432846069336 Z M 137.6802978515625 129.1317443847656 L 135.976806640625 129.9833831787109 L 128.7484130859375 133.5971374511719 L 128.3604278564453 133.7910919189453 L 128.1666564941406 134.1791534423828 L 121.3552627563477 147.8196411132813 L 120.261474609375 150.0100708007813 L 122.6886978149414 149.6891937255859 C 131.3987884521484 148.5377044677734 137.967041015625 141.0813751220703 137.967041015625 132.3450775146484 C 137.967041015625 132.0098724365234 137.9278106689453 131.6824340820313 137.8932037353516 131.3935394287109 C 137.8777618408203 131.2646636962891 137.8631744384766 131.1429290771484 137.852783203125 131.0284576416016 L 137.6802978515625 129.1317443847656 Z M 58.52734756469727 69.20996856689453 C 55.11899185180664 69.20996856689453 51.9161376953125 70.87844848632813 49.95972061157227 73.67315673828125 L 44.78078460693359 81.06955718994141 L 43.9667854309082 82.23207855224609 L 45.1960563659668 82.94126129150391 L 126.3658905029297 129.7680206298828 L 126.9714736938477 130.1173706054688 L 127.5968246459961 129.8047485351563 L 146.6258850097656 120.2917404174805 L 148.7987365722656 119.2054901123047 L 146.6895599365234 118.000244140625 L 63.71955490112305 70.58869934082031 C 62.14369964599609 69.68686676025391 60.34801483154297 69.20996856689453 58.52734756469727 69.20996856689453 Z" stroke="none"/>
          <path d="M 58.75004577636719 66.60214233398438 C 54.37041473388672 66.60214233398438 50.18360900878906 68.70033264160156 47.82271575927734 72.07896423339844 L 30.72767639160156 96.51736450195313 C 29.35667419433594 98.47966003417969 28.63200378417969 100.7813720703125 28.63200378417969 103.1736755371094 C 28.63200378417969 107.3079223632813 30.85265350341797 111.1578063964844 34.42795562744141 113.2212982177734 L 53.03969573974609 123.9694671630859 L 55.57747650146484 125.4350128173828 L 53.82009124755859 127.780158996582 L 50.45702362060547 132.2679748535156 C 48.97291564941406 134.2459106445313 48.15556335449219 136.6997680664063 48.15556335449219 139.1775207519531 C 48.15556335449219 141.5815734863281 49.00445556640625 143.9712829589844 50.61045837402344 146.0882873535156 L 51.72704315185547 147.5601501464844 L 50.70446014404297 149.0988159179688 L 45.75089263916016 156.5523681640625 L 44.97939300537109 157.7132568359375 L 43.58550262451172 157.7132568359375 L 19.52386474609375 157.7132568359375 L 16.92387390136719 157.7132568359375 L 16.92387390136719 155.1132507324219 L 16.92387390136719 145.3193054199219 C 16.92387390136719 144.96484375 16.64266967773438 144.6975402832031 16.26979064941406 144.6975402832031 L 3.254135131835938 144.6975402832031 C 2.8812255859375 144.6975402832031 2.600006103515625 144.9648590087891 2.600006103515625 145.3193054199219 L 2.600006103515625 177.8884429931641 C 2.600006103515625 178.2506103515625 2.893417358398438 178.5452728271484 3.254058837890625 178.5452728271484 L 16.27008056640625 178.5452728271484 C 16.63076782226563 178.5452728271484 16.92417907714844 178.2506103515625 16.92417907714844 177.8884429931641 L 16.92417907714844 174.6373901367188 L 16.92417907714844 172.0373992919922 L 19.524169921875 172.0373992919922 L 43.58580780029297 172.0373992919922 C 49.25791168212891 172.0373992919922 54.52167510986328 169.2188720703125 57.66632843017578 164.4979248046875 L 63 156.4900970458984 L 63.98287200927734 155.0144348144531 L 65.71552276611328 155.3905639648438 C 66.56878662109375 155.5758056640625 67.47008514404297 155.7566528320313 68.28591156005859 155.7566528320313 C 72.5587158203125 155.7566528320313 76.57706451416016 153.4794311523438 78.77326202392578 149.8128356933594 L 82.34854125976563 143.8486022949219 L 83.66371917724609 141.6546325683594 L 85.87880706787109 142.9338531494141 L 113.5721969604492 158.9266204833984 L 113.5746765136719 158.9280548095703 L 113.5771484375 158.9294891357422 C 113.6721801757813 158.9846496582031 113.7834167480469 159.0137939453125 113.8988494873047 159.0137939453125 C 113.9641418457031 159.0137939453125 114.0254211425781 159.0052490234375 114.0859527587891 158.9877014160156 C 114.2593383789063 158.9332580566406 114.4041900634766 158.8109436035156 114.4831695556641 158.6529235839844 L 116.8922424316406 153.8241271972656 L 117.6723480224609 152.2604675292969 L 119.4148101806641 152.3922119140625 C 119.6441802978516 152.4095458984375 119.8461303710938 152.4364013671875 120.024284362793 152.4600982666016 C 120.165412902832 152.4788513183594 120.3253707885742 152.5001220703125 120.3972396850586 152.5001220703125 C 131.5233917236328 152.5001220703125 140.5751800537109 143.4391632080078 140.5751800537109 132.3017578125 C 140.5751800537109 131.2396850585938 140.4315185546875 130.0554504394531 140.1231079101563 128.5748748779297 L 139.7148742675781 126.6152496337891 L 141.5049743652344 125.7194900512695 L 153.2290191650391 119.8528823852539 C 153.4447021484375 119.7449340820313 153.5835723876953 119.5264511108398 153.5921478271484 119.2819747924805 C 153.5971984863281 119.0385131835938 153.4711303710938 118.8136978149414 153.2603454589844 118.6934204101563 L 65.01062774658203 68.22029113769531 C 63.16297912597656 67.16184997558594 60.99839019775391 66.60231018066406 58.75065612792969 66.60214233398438 L 58.75010681152344 66.60214233398438 L 58.75004577636719 66.60214233398438 M 126.9274597167969 131.5927734375 L 125.7162857055664 130.89404296875 L 44.54645538330078 84.06729125976563 L 42.087890625 82.64894104003906 L 43.71588897705078 80.32389831542969 L 48.89473724365234 72.92765808105469 C 51.09417724609375 69.78572082519531 54.69515228271484 67.90997314453125 58.52735137939453 67.90997314453125 C 60.57417297363281 67.90997314453125 62.59315490722656 68.44622802734375 64.36452484130859 69.4599609375 L 147.3345184326172 116.8715057373047 L 151.5528869628906 119.2820053100586 L 147.2071685791016 121.4545288085938 L 128.1781311035156 130.967529296875 L 126.9274597167969 131.5927734375 M 113.6246109008789 157.4649658203125 L 111.2328262329102 156.0849609375 L 35.07869720458984 112.1462860107422 C 31.90895843505859 110.3167266845703 29.93987274169922 106.9053955078125 29.93987274169922 103.2435455322266 C 29.93987274169922 101.1234893798828 30.58232879638672 99.08416748046875 31.79865264892578 97.34481811523438 L 39.96847534179688 85.67625427246094 L 41.33452606201172 83.72518920898438 L 43.39756774902344 84.91535949707031 L 123.9234161376953 131.3711547851563 L 126.0440216064453 132.5945434570313 L 124.9502868652344 134.7848358154297 L 114.858283996582 154.9944763183594 L 113.6246109008789 157.4649658203125 M 68.13021850585938 154.3943176269531 C 66.17121887207031 154.3943176269531 64.28154754638672 153.8805084228516 62.66806793212891 152.9099884033203 L 54.41669464111328 147.9598388671875 C 51.36158752441406 146.1291198730469 49.46371459960938 142.7784118652344 49.46371459960938 139.21533203125 C 49.46371459960938 137.0278015136719 50.18691253662109 134.8555297851563 51.50267791748047 133.0952758789063 L 55.33545684814453 127.9851608276367 L 56.71839141845703 126.1413116455078 L 58.71478271484375 127.2931594848633 L 80.23983001708984 139.7124938964844 L 82.53069305419922 141.0342712402344 L 81.16996002197266 143.3022155761719 L 77.65145874023438 149.1664733886719 C 75.71293640136719 152.39111328125 72.06461334228516 154.3943176269531 68.13021850585938 154.3943176269531 M 118.0046081542969 151.6197509765625 L 120.1922149658203 147.2388610839844 L 127.0036087036133 133.598388671875 L 127.3911514282227 132.822265625 L 128.1670837402344 132.4343566894531 L 135.3954772949219 128.8206176757813 L 138.8025512695313 127.1172943115234 L 139.1474304199219 130.9107666015625 C 139.1561584472656 131.0067749023438 139.169677734375 131.1195678710938 139.1839752197266 131.239013671875 C 139.222900390625 131.5639953613281 139.2670288085938 131.9323120117188 139.2670288085938 132.3450775146484 C 139.2670288085938 141.7309417724609 132.2131500244141 149.7413635253906 122.8590850830078 150.9779663085938 L 118.0046081542969 151.6197509765625 M 15.61569213867188 174.6374206542969 L 13.01585388183594 174.6374206542969 L 13.01570129394531 177.2374267578125 L 6.507843017578125 177.2374267578125 L 3.907852172851563 177.2374267578125 L 3.907852172851563 174.6374206542969 L 3.907852172851563 148.605712890625 L 3.907852172851563 146.0057067871094 L 6.507843017578125 146.0057067871094 L 13.01570129394531 146.0057067871094 L 15.61569213867188 146.0057067871094 L 15.61569213867188 148.605712890625 L 15.61569213867188 174.6374206542969 M 43.58550262451172 170.7390289306641 L 19.52386474609375 170.7390289306641 L 16.92387390136719 170.7390289306641 L 16.92387390136719 168.1390380859375 L 16.92387390136719 161.6311645507813 L 16.92387390136719 159.0311584472656 L 19.52386474609375 159.0311584472656 L 43.58550262451172 159.0311584472656 C 44.89817810058594 159.0311584472656 46.11258697509766 158.3822326660156 46.83673858642578 157.2912292480469 L 51.34280395507813 150.5298461914063 L 52.71774291992188 148.4667663574219 L 54.84380340576172 149.7420959472656 L 60.43189239501953 153.0941162109375 L 62.77045440673828 154.4969024658203 L 61.25780487060547 156.7659454345703 L 56.57875823974609 163.7846374511719 C 53.67702484130859 168.1392517089844 48.81974029541016 170.7390289306641 43.58550262451172 170.7390289306641 M 58.75109100341797 64.00215148925781 C 61.36587524414063 64.00233459472656 63.98104858398438 64.63410949707031 66.30302429199219 65.96424865722656 L 154.5511779785156 116.4364852905273 C 155.5935668945313 117.0313568115234 156.2226104736328 118.1539688110352 156.1911773681641 119.3537673950195 C 156.1560821533203 120.5560073852539 155.4666595458984 121.640510559082 154.3925170898438 122.1780090332031 L 142.66845703125 128.0446472167969 C 142.9713897705078 129.4988555908203 143.1751708984375 130.9213256835938 143.1751708984375 132.3017578125 C 143.1751708984375 144.8714447021484 132.9556579589844 155.1001281738281 120.3972396850586 155.1001281738281 C 119.9945449829102 155.1001281738281 119.6141357421875 155.0147094726563 119.2187805175781 154.9848022460938 L 116.8097229003906 159.8136291503906 C 116.4091949462891 160.6150054931641 115.6944122314453 161.2162780761719 114.8362884521484 161.4771118164063 C 114.5281753540039 161.5692443847656 114.2133712768555 161.6138000488281 113.8988494873047 161.6138000488281 C 113.3332672119141 161.6138000488281 112.7707214355469 161.4676361083984 112.2719573974609 161.1781311035156 L 84.57856750488281 145.1853790283203 L 81.00328063964844 151.1496276855469 C 78.340087890625 155.5958557128906 73.46554565429688 158.3566589355469 68.28591156005859 158.3566589355469 C 67.22706604003906 158.3566589355469 66.19106292724609 158.1543884277344 65.16393280029297 157.931396484375 L 59.83026123046875 165.9392242431641 C 56.20126342773438 171.3873138427734 50.12873840332031 174.6373901367188 43.58580780029297 174.6373901367188 L 19.524169921875 174.6373901367188 L 19.524169921875 177.8884429931641 C 19.524169921875 179.6886138916016 18.0687255859375 181.145263671875 16.27008056640625 181.145263671875 L 3.254058837890625 181.145263671875 C 1.455429077148438 181.145263671875 0 179.6886138916016 0 177.8884429931641 L 0 145.3193054199219 C 0 143.5191345214844 1.455429077148438 142.0975646972656 3.254058837890625 142.0975341796875 L 16.26979064941406 142.0975341796875 C 18.06842041015625 142.0975341796875 19.52386474609375 143.5191345214844 19.52386474609375 145.3193054199219 L 19.52386474609375 155.1132507324219 L 43.58550262451172 155.1132507324219 L 48.5390625 147.6596984863281 C 46.69832611083984 145.2332763671875 45.55556488037109 142.2979888916016 45.55556488037109 139.1775207519531 C 45.55556488037109 136.14306640625 46.55648040771484 133.13427734375 48.37737274169922 130.70751953125 L 51.73945617675781 126.2209854125977 L 33.12771606445313 115.4728164672852 C 28.75224304199219 112.947509765625 26.03199768066406 108.2340240478516 26.03199768066406 103.1736755371094 C 26.03199768066406 100.2444915771484 26.91851806640625 97.42970275878906 28.59635162353516 95.02824401855469 L 45.69223785400391 70.58866882324219 C 48.64869689941406 66.35768127441406 53.70069885253906 64.00180053710938 58.75109100341797 64.00215148925781 Z M 127.0155181884766 128.6419372558594 L 146.0445709228516 119.1289443969727 L 63.07456970214844 71.7174072265625 C 61.69235229492188 70.92637634277344 60.11946105957031 70.50996398925781 58.52735137939453 70.50996398925781 C 55.54019927978516 70.50996398925781 52.73760986328125 71.97181701660156 51.02469635009766 74.418701171875 L 45.84569549560547 81.815185546875 L 127.0155181884766 128.6419372558594 Z M 112.5321731567383 153.8329162597656 L 122.6241760253906 133.6232604980469 L 42.09832763671875 87.16746520996094 L 33.92849731445313 98.83602905273438 C 33.01972198486328 100.1355895996094 32.53987121582031 101.6578369140625 32.53987121582031 103.2435455322266 C 32.53987121582031 105.9796447753906 34.01117706298828 108.5280914306641 36.37843322753906 109.8944702148438 L 112.5321731567383 153.8329162597656 Z M 68.13021850585938 151.7943115234375 C 71.01187133789063 151.7943115234375 73.90409088134766 150.3537292480469 75.42311096191406 147.8268737792969 L 78.94046020507813 141.9645385742188 L 57.41541290283203 129.5451965332031 L 53.58263397216797 134.6553039550781 C 52.60398101806641 135.964599609375 52.063720703125 137.5820617675781 52.063720703125 139.21533203125 C 52.063720703125 141.8687438964844 53.47800445556641 144.3662719726563 55.75312805175781 145.7295989990234 L 64.00563049316406 150.680419921875 C 65.26450347900391 151.4376525878906 66.69585418701172 151.7943115234375 68.13021850585938 151.7943115234375 Z M 122.5183258056641 148.400390625 C 130.4794769287109 147.3479309082031 136.6670227050781 140.5893096923828 136.6670227050781 132.3450775146484 C 136.6670227050781 131.9588775634766 136.5944213867188 131.5455017089844 136.55810546875 131.1461791992188 L 129.3297119140625 134.7599182128906 L 122.5183258056641 148.400390625 Z M 13.01570129394531 174.6374206542969 L 13.01570129394531 148.605712890625 L 6.507843017578125 148.605712890625 L 6.507843017578125 174.6374206542969 L 13.01570129394531 174.6374206542969 L 13.01600646972656 174.6374206542969 L 13.01570129394531 174.6374206542969 Z M 43.58550262451172 168.1390380859375 C 47.94847869873047 168.1390380859375 51.99691772460938 165.9718780517578 54.41513061523438 162.3428802490234 L 59.09445953369141 155.3237457275391 L 53.50637054443359 151.9717254638672 L 49.00030517578125 158.7331237792969 C 47.79593658447266 160.547607421875 45.7718505859375 161.6311645507813 43.58550262451172 161.6311645507813 L 19.52386474609375 161.6311645507813 L 19.52386474609375 168.1390380859375 L 43.58550262451172 168.1390380859375 Z" stroke="none"/>
        </g>
        <g id="Ellipse_13" data-name="Ellipse 13" transform="translate(104.128 71.587)" fill="#fff" stroke="#000" stroke-width="2.6">
          <circle cx="3.254" cy="3.254" r="3.254" stroke="none"/>
          <circle cx="3.254" cy="3.254" r="1.954" fill="none"/>
        </g>
      </g>
    </g>
  </g>
</svg>
