<svg xmlns="http://www.w3.org/2000/svg" width="21.311" height="21.311" viewBox="0 0 21.311 21.311">
  <g id="facebook" transform="translate(0 0)">
    <path id="Path" d="M18.439,0H2.872A2.872,2.872,0,0,0,0,2.872V18.439A2.872,2.872,0,0,0,2.872,21.31h7.678l.013-7.615H8.584a.467.467,0,0,1-.467-.465l-.009-2.455a.467.467,0,0,1,.467-.469h1.975V7.935a3.875,3.875,0,0,1,4.136-4.251H16.7a.467.467,0,0,1,.467.467V6.22a.467.467,0,0,1-.467.467H15.464c-1.335,0-1.594.635-1.594,1.566v2.053H16.8a.467.467,0,0,1,.464.522l-.291,2.455a.467.467,0,0,1-.464.412h-2.63L13.87,21.31h4.568a2.872,2.872,0,0,0,2.872-2.872V2.872A2.872,2.872,0,0,0,18.439,0Z" fill="#fff"/>
  </g>
</svg>
