<svg xmlns="http://www.w3.org/2000/svg" width="184.141" height="179.67" viewBox="0 0 184.141 179.67">
  <g id="Group_22" data-name="Group 22" transform="translate(-619 -2204)">
    <g id="Path_67" data-name="Path 67" transform="translate(640 2204)" fill="none">
      <path d="M71.5,0A71.5,71.5,0,0,1,143,71.5c0,39.488-24.482,108.17-71.5,108.17S0,110.988,0,71.5A71.5,71.5,0,0,1,71.5,0Z" stroke="none"/>
      <path d="M 71.50001525878906 1 C 61.98213195800781 1 52.74948883056641 2.863861083984375 44.05854034423828 6.539825439453125 C 39.88133239746094 8.306640625 35.85235595703125 10.49349975585938 32.08349609375 13.03970336914063 C 28.35017395019531 15.5618896484375 24.83949279785156 18.45845031738281 21.64897155761719 21.64897155761719 C 18.45845031738281 24.83950805664063 15.56188201904297 28.35015869140625 13.03970336914063 32.08348083496094 C 10.49351501464844 35.85234069824219 8.306625366210938 39.88134765625 6.539840698242188 44.05851745605469 C 2.863861083984375 52.74948120117188 1 61.98213958740234 1 71.50002288818359 C 1 76.42259216308594 1.381805419921875 81.75600433349609 2.134872436523438 87.35206604003906 C 2.904373168945313 93.07041168212891 4.0465087890625 98.94606781005859 5.529556274414063 104.8158416748047 C 8.710494995117188 117.4057006835938 13.3675537109375 129.5432739257813 18.997314453125 139.9163665771484 C 22.06253814697266 145.564208984375 25.42771911621094 150.7186126708984 28.99940490722656 155.2364349365234 C 32.79637908935547 160.0392761230469 36.87217712402344 164.1781158447266 41.11354064941406 167.5380249023438 C 50.43844604492188 174.9249572753906 60.66192626953125 178.6704559326172 71.50001525878906 178.6704559326172 C 82.33808898925781 178.6704559326172 92.56158447265625 174.9249572753906 101.886474609375 167.5380249023438 C 106.1278381347656 164.1781158447266 110.2036285400391 160.0392761230469 114.0006103515625 155.2364349365234 C 117.5722885131836 150.7186126708984 120.9374694824219 145.564208984375 124.0027008056641 139.9163665771484 C 129.6324462890625 129.5432739257813 134.2895355224609 117.4057006835938 137.4704742431641 104.8158416748047 C 138.9535217285156 98.94606781005859 140.0956573486328 93.07041168212891 140.8651580810547 87.35206604003906 C 141.6182250976563 81.75600433349609 142.0000305175781 76.42259216308594 142.0000305175781 71.50002288818359 C 142.0000305175781 61.98213958740234 140.1361694335938 52.74948120117188 136.4601898193359 44.05851745605469 C 134.6934051513672 39.88134765625 132.5065155029297 35.85234069824219 129.9603271484375 32.08348083496094 C 127.4381484985352 28.35015869140625 124.5415649414063 24.83950805664063 121.3510360717773 21.64897155761719 C 118.1605377197266 18.45845031738281 114.6498565673828 15.5618896484375 110.9165344238281 13.03970336914063 C 107.1476745605469 10.49349975585938 103.1186752319336 8.306640625 98.94149780273438 6.539825439453125 C 90.25053405761719 2.863861083984375 81.01789855957031 1 71.50001525878906 1 M 71.50001525878906 0 C 110.9883575439453 0 143.0000305175781 32.01164245605469 143.0000305175781 71.50002288818359 C 143.0000305175781 110.9883651733398 118.5175628662109 179.6704559326172 71.50001525878906 179.6704559326172 C 24.482421875 179.6704559326172 0 110.9883651733398 0 71.50002288818359 C 0 32.01164245605469 32.01165008544922 0 71.50001525878906 0 Z" stroke="none" fill="#fff"/>
    </g>
    <g id="Group_18" data-name="Group 18">
      <g id="Path_68" data-name="Path 68" transform="translate(609.499 2287)" fill="none">
        <path d="M18.117-2.1c8.837,0,10.972,9.113,11.764,18.1s6.848,24.813-1.988,24.813S9.5,24.837,9.5,16,9.281-2.1,18.117-2.1Z" stroke="none"/>
        <path d="M 18.11749458312988 -1.102294921875 C 16.28041458129883 -1.102294921875 14.85275459289551 -0.6777229309082031 13.75291442871094 0.1956863403320313 C 12.76949310302734 0.9766349792480469 12.03997421264648 2.124397277832031 11.52267456054688 3.704524993896484 C 10.49599456787109 6.840557098388672 10.49855422973633 11.17640686035156 10.50103378295898 15.36949729919434 L 10.50128555297852 15.99999618530273 C 10.50128555297852 18.02749633789063 11.04307556152344 20.53517723083496 12.06807327270508 23.25195693969727 C 13.08967590332031 25.95973587036133 14.52147483825684 28.69255638122559 16.20867347717285 31.15497589111328 C 17.9759349822998 33.73423767089844 19.94378471374512 35.8883171081543 21.89947509765625 37.38433837890625 C 24.00616455078125 38.99586486816406 26.02288436889648 39.81298828125 27.89361381530762 39.81298828125 C 29.11384391784668 39.81298828125 29.99161338806152 39.46685791015625 30.57710456848145 38.75481796264648 C 31.45257377624512 37.69012832641602 31.78312301635742 35.76564788818359 31.58764457702637 32.87140655517578 C 31.40305328369141 30.13845634460449 30.77344512939453 26.94144630432129 30.16457366943359 23.84970664978027 C 29.61109352111816 21.03926658630371 29.08831405639648 18.38468742370605 28.88581466674805 16.08781623840332 C 28.58160400390625 12.63710594177246 27.9644947052002 7.633167266845703 26.12568473815918 4.032817840576172 C 25.28541374206543 2.387596130371094 24.23641395568848 1.127548217773438 23.00781440734863 0.2876472473144531 C 21.63968467712402 -0.64764404296875 20.04005432128906 -1.102294921875 18.11749458312988 -1.102294921875 M 18.11749458312988 -2.102294921875 C 26.95404434204102 -2.102294921875 29.08947372436523 7.010986328125 29.88195419311523 15.99999618530273 C 30.67443466186523 24.98901748657227 36.73017501831055 40.81298828125 27.89361381530762 40.81298828125 C 19.05706405639648 40.81298828125 9.501285552978516 24.83655548095703 9.501285552978516 15.99999618530273 C 9.501285552978516 7.163446426391602 9.280933380126953 -2.102294921875 18.11749458312988 -2.102294921875 Z" stroke="none" fill="#fff"/>
      </g>
      <g id="Path_69" data-name="Path 69" transform="translate(770.499 2287)" fill="none">
        <path d="M24.025-2.1C15.188-2.1,13.053,7.011,12.26,16S5.412,40.813,14.249,40.813,32.641,24.837,32.641,16,32.861-2.1,24.025-2.1Z" stroke="none"/>
        <path d="M 24.02483749389648 -1.102294921875 C 22.1022777557373 -1.102294921875 20.50264739990234 -0.64764404296875 19.13451766967773 0.2876472473144531 C 17.90591812133789 1.127548217773438 16.85691833496094 2.387596130371094 16.01664733886719 4.032817840576172 C 14.17783737182617 7.633167266845703 13.56072807312012 12.63710594177246 13.25651741027832 16.08781623840332 C 13.05401802062988 18.38468742370605 12.5312385559082 21.03925704956055 11.97776794433594 23.84969711303711 C 11.36888694763184 26.94144630432129 10.73928833007813 30.13845634460449 10.55469703674316 32.87140655517578 C 10.35921859741211 35.76564788818359 10.68976783752441 37.69012832641602 11.56523704528809 38.75482559204102 C 12.15072822570801 39.46685791015625 13.02849769592285 39.81298828125 14.24871826171875 39.81298828125 C 16.11944770812988 39.81298828125 18.13616752624512 38.99586486816406 20.24285697937012 37.38433837890625 C 22.19854736328125 35.8883171081543 24.1663875579834 33.73423767089844 25.93364715576172 31.15497589111328 C 27.62084770202637 28.69255638122559 29.05264663696289 25.95973587036133 30.07425689697266 23.25195693969727 C 31.09924697875977 20.53517723083496 31.64103698730469 18.02749633789063 31.64103698730469 15.99999618530273 L 31.64128875732422 15.36952590942383 C 31.64376831054688 11.17642593383789 31.64632797241211 6.840576171875 30.61964797973633 3.704536437988281 C 30.10234832763672 2.124397277832031 29.37282752990723 0.9766464233398438 28.38941764831543 0.1956863403320313 C 27.28957748413086 -0.6777229309082031 25.86190795898438 -1.102294921875 24.02483749389648 -1.102294921875 M 24.02483749389648 -2.102294921875 C 32.86137771606445 -2.102294921875 32.64103698730469 7.163446426391602 32.64103698730469 15.99999618530273 C 32.64103698730469 24.83655548095703 23.08526802062988 40.81298828125 14.24871826171875 40.81298828125 C 5.412178039550781 40.81298828125 11.46789741516113 24.98901748657227 12.26037788391113 15.99999618530273 C 13.05285835266113 7.010986328125 15.18828773498535 -2.102294921875 24.02483749389648 -2.102294921875 Z" stroke="none" fill="#fff"/>
      </g>
    </g>
    <g id="Group_19" data-name="Group 19">
      <g id="Group_12" data-name="Group 12" transform="translate(11.812 -96)">
        <g id="Path_70" data-name="Path 70" transform="translate(647.188 2402.584) rotate(-90)" fill="none">
          <path d="M21.182.426C13.764-1.7,7.491,4.491,4.26,11.168s-5.567,22.75-3.446,30.8,23.048-1.5,26.279-14.428S28.6,2.552,21.182.426Z" stroke="none"/>
          <path d="M 18.21067428588867 1.000007629394531 C 15.61077499389648 1.000007629394531 13.06678485870361 2.068557739257813 10.64936447143555 4.175975799560547 C 8.535114288330078 6.019096374511719 6.585535049438477 8.656997680664063 5.159755706787109 11.60374450683594 C 3.636314392089844 14.75235748291016 2.242395401000977 20.3360652923584 1.521974563598633 26.1758861541748 C 0.7446956634521484 32.47663497924805 0.8390159606933594 38.13936614990234 1.780765533447266 41.71208572387695 C 2.16810417175293 43.18154525756836 3.418514251708984 43.92662811279297 5.497274398803711 43.92662811279297 C 12.00016593933105 43.92662811279297 23.82732391357422 36.47637557983398 26.12237548828125 27.29651641845703 C 27.70717430114746 20.95751571655273 28.07187461853027 14.8589973449707 27.14929580688477 10.12438583374023 C 26.49511528015137 6.767215728759766 24.88103485107422 2.526214599609375 20.90653610229492 1.387004852294922 C 20.01063537597656 1.130226135253906 19.10368537902832 1.000015258789063 18.21085548400879 1.000007629394531 L 18.21067428588867 1.000007629394531 M 18.21087455749512 3.814697265625e-06 C 19.17662048339844 1.9073486328125e-05 20.16875648498535 0.1352729797363281 21.18206405639648 0.4257164001464844 C 28.6003246307373 2.551994323730469 30.32370567321777 14.6147346496582 27.09251594543457 27.5390567779541 C 24.68490028381348 37.169189453125 12.45385551452637 44.92662811279297 5.497272491455078 44.92662811279297 C 3.117630004882813 44.92662811279297 1.354549407958984 44.01843643188477 0.8137950897216797 41.96697616577148 C -1.307775497436523 33.9183349609375 1.028644561767578 17.84581565856934 4.259584426879883 11.16820526123047 C 7.049198150634766 5.402736663818359 12.10656929016113 -0.000110626220703125 18.21087455749512 3.814697265625e-06 Z" stroke="none" fill="#fff"/>
        </g>
        <g id="Path_71" data-name="Path 71" transform="translate(707.188 2402.584) rotate(-90)" fill="none">
          <path d="M21.182,44.5C13.764,46.627,7.491,40.436,4.26,33.758S-1.308,11.008.814,2.96s23.047,1.5,26.279,14.428S28.6,42.375,21.182,44.5Z" stroke="none"/>
          <path d="M 18.2108268737793 43.9266471862793 C 19.10359764099121 43.9266471862793 20.01053810119629 43.79643630981445 20.90646743774414 43.53964614868164 C 24.88095664978027 42.40044784545898 26.49503707885742 38.15942764282227 27.14920806884766 34.8022575378418 C 28.07178688049316 30.0676383972168 27.70708656311035 23.9691276550293 26.12228775024414 17.63011741638184 C 23.82724761962891 8.450258255004883 12.0001277923584 0.9999977946281433 5.497257232666016 0.9999977946281433 C 3.418517351150513 0.9999977946281433 2.168107509613037 1.745077848434448 1.780767440795898 3.214547872543335 C 0.839017391204834 6.787277698516846 0.7446973919868469 12.45000743865967 1.521977424621582 18.75074768066406 C 2.242387294769287 24.59056854248047 3.63630747795105 30.17428779602051 5.15974760055542 33.32289886474609 C 6.585607528686523 36.26983642578125 8.535177230834961 38.90779876708984 10.64931774139404 40.75080871582031 C 13.06664752960205 42.85813903808594 15.61070728302002 43.9266471862793 18.2108268737793 43.9266471862793 M 18.21082305908203 44.9266471862793 C 12.10653591156006 44.9266471862793 7.049172878265381 39.52391815185547 4.25957727432251 33.75843811035156 C 1.028637409210205 27.08081817626953 -1.307772636413574 11.00830745697021 0.8137974143028259 2.959657907485962 C 1.354549169540405 0.9081926941871643 3.117626428604126 -2.02514638658613e-06 5.497261524200439 -2.02514638658613e-06 C 12.45382022857666 -2.02514638658613e-06 24.6848201751709 7.757444858551025 27.09242820739746 17.38757705688477 C 30.32360649108887 30.31189727783203 28.6002368927002 42.37465667724609 21.18199729919434 44.50093841552734 C 20.16869163513184 44.7913818359375 19.17656517028809 44.9266471862793 18.21082305908203 44.9266471862793 Z" stroke="none" fill="#fff"/>
        </g>
        <g id="Path_72" data-name="Path 72" transform="translate(687 2424)" fill="none">
          <path d="M13-5.258c5.485,0,13,6.377,13,7.758S20.18,5,13,5,0,3.881,0,2.5,7.515-5.258,13-5.258Z" stroke="none"/>
          <path d="M 13 -4.258058547973633 C 10.94838047027588 -4.258058547973633 8.149419784545898 -3.173988342285156 5.32080078125 -1.283808350563049 C 4.188919067382813 -0.527448296546936 3.100870132446289 0.3297716975212097 2.257070541381836 1.129941701889038 C 1.62803840637207 1.726440668106079 1.284473419189453 2.149206876754761 1.116388320922852 2.395941972732544 C 1.460773468017578 2.607370853424072 2.387472152709961 3.027673721313477 4.678539276123047 3.407581567764282 C 6.982429504394531 3.78961181640625 9.937719345092773 4.000001907348633 13 4.000001907348633 C 16.06227874755859 4.000001907348633 19.01757049560547 3.78961181640625 21.32146072387695 3.407581567764282 C 23.61252784729004 3.027673721313477 24.53922653198242 2.607370853424072 24.88361167907715 2.395941972732544 C 24.71552658081055 2.149206876754761 24.37196159362793 1.726440668106079 23.74292945861816 1.129941701889038 C 22.89912986755371 0.3297716975212097 21.81108093261719 -0.527448296546936 20.67919921875 -1.283808350563049 C 17.8505802154541 -3.173988342285156 15.05161952972412 -4.258058547973633 13 -4.258058547973633 M 13 -5.258058547973633 C 18.4846305847168 -5.258058547973633 26 1.119291663169861 26 2.500001668930054 C 26 3.880711555480957 20.1796989440918 5.000001907348633 13 5.000001907348633 C 5.82029914855957 5.000001907348633 0 3.880711555480957 0 2.500001668930054 C 0 1.119291663169861 7.515369415283203 -5.258058547973633 13 -5.258058547973633 Z" stroke="none" fill="#fff"/>
        </g>
      </g>
      <g id="Union_2" data-name="Union 2" transform="translate(695 2345.36)" fill="none">
        <path d="M16.068,10.282a40.354,40.354,0,0,1-5.25.324C4.845,10.606,0,9.449,0,8.02S6.255,0,10.818,0a10.052,10.052,0,0,1,5.25,2.038A10.05,10.05,0,0,1,21.316,0C25.88,0,32.135,6.593,32.135,8.02s-4.843,2.586-10.819,2.586A40.349,40.349,0,0,1,16.068,10.282Z" stroke="none"/>
        <path d="M 21.31650161743164 9.605600357055664 C 23.8518009185791 9.605600357055664 26.29357147216797 9.389349937438965 28.1920108795166 8.996700286865234 C 30.04400444030762 8.613648414611816 30.84429550170898 8.173391342163086 31.09167289733887 7.957644462585449 C 30.98935127258301 7.735854625701904 30.71743011474609 7.275658130645752 30.12361145019531 6.56781005859375 C 29.43185043334961 5.743220329284668 28.53175163269043 4.855160236358643 27.58912086486816 4.067220211029053 C 25.25718116760254 2.117960214614868 22.97090148925781 1.00000011920929 21.31650161743164 1.00000011920929 C 20.03996086120605 1.00000011920929 18.41973114013672 1.644520163536072 16.63096046447754 2.863880157470703 L 16.06785202026367 3.247740268707275 L 15.50465106964111 2.864020109176636 C 13.71480178833008 1.644570231437683 12.0941915512085 1.00000011920929 10.81800174713135 1.00000011920929 C 9.163961410522461 1.00000011920929 6.877971172332764 2.117950201034546 4.546181201934814 4.067200183868408 C 3.603591442108154 4.85515022277832 2.703521251678467 5.743220329284668 2.011781454086304 6.567800045013428 C 1.418063163757324 7.275546073913574 1.146124839782715 7.73574161529541 1.043765306472778 7.957569122314453 C 1.291270971298218 8.173354148864746 2.091761589050293 8.613614082336426 3.943971395492554 8.996700286865234 C 5.842451572418213 9.389349937438965 8.283700942993164 9.605600357055664 10.81800174713135 9.605600357055664 C 12.61745166778564 9.605600357055664 14.38712120056152 9.496590614318848 15.93569087982178 9.290349960327148 L 16.06770133972168 9.272769927978516 L 16.19971084594727 9.290349960327148 C 17.74828147888184 9.496590614318848 19.51764106750488 9.605600357055664 21.31650161743164 9.605600357055664 M 21.31650161743164 10.60560035705566 C 19.41210174560547 10.60560035705566 17.62200164794922 10.48859977722168 16.06770133972168 10.28159999847412 C 14.51340103149414 10.48859977722168 12.72330093383789 10.60560035705566 10.81800174713135 10.60560035705566 C 4.844701290130615 10.60560035705566 1.339721620752243e-06 9.449100494384766 1.339721620752243e-06 8.019900321960449 C 1.339721620752243e-06 6.593400001525879 6.255001544952393 1.785278271881907e-07 10.81800174713135 1.785278271881907e-07 C 12.47220134735107 1.785278271881907e-07 14.34780120849609 0.8658002018928528 16.06770133972168 2.03760027885437 C 17.78670120239258 0.8658002018928528 19.6632022857666 1.785278271881907e-07 21.31650161743164 1.785278271881907e-07 C 25.88040161132813 1.785278271881907e-07 32.13540267944336 6.593400001525879 32.13540267944336 8.019900321960449 C 32.13540267944336 9.449100494384766 27.29250144958496 10.60560035705566 21.31650161743164 10.60560035705566 Z" stroke="none" fill="#fff"/>
      </g>
    </g>
  </g>
</svg>
