<svg xmlns="http://www.w3.org/2000/svg" width="21.31" height="21.31" viewBox="0 0 21.31 21.31">
  <g id="instagram" transform="translate(0 0)">
    <path id="Shape" d="M14.961,21.31H6.348A6.356,6.356,0,0,1,0,14.961V6.348A6.356,6.356,0,0,1,6.348,0h8.613A6.356,6.356,0,0,1,21.31,6.348v8.613A6.356,6.356,0,0,1,14.961,21.31ZM6.348,2.143a4.21,4.21,0,0,0-4.2,4.2v8.613a4.21,4.21,0,0,0,4.2,4.2h8.613a4.21,4.21,0,0,0,4.2-4.2V6.348a4.21,4.21,0,0,0-4.2-4.2Z" fill="#fff"/>
    <path id="Shape-2" data-name="Shape" d="M5.511,11.023a5.511,5.511,0,1,1,5.511-5.511A5.518,5.518,0,0,1,5.511,11.023Zm0-8.879A3.368,3.368,0,1,0,8.879,5.511,3.372,3.372,0,0,0,5.511,2.143Z" transform="translate(5.143 5.143)" fill="#fff"/>
    <circle id="Oval" cx="1.321" cy="1.321" r="1.321" transform="translate(14.856 3.864)" fill="#fff"/>
  </g>
</svg>
