<svg xmlns="http://www.w3.org/2000/svg" xmlns:xlink="http://www.w3.org/1999/xlink" width="620.018" height="469.523" viewBox="0 0 620.018 469.523">
  <defs>
    <linearGradient id="linear-gradient" x1="0.5" y1="1.68" x2="0.519" y2="-0.326" gradientUnits="objectBoundingBox">
      <stop offset="0" stop-color="#fff"/>
      <stop offset="1"/>
    </linearGradient>
    <linearGradient id="linear-gradient-5" x1="0.511" y1="-0.949" x2="0.5" y2="1" gradientUnits="objectBoundingBox">
      <stop offset="0" stop-color="#fff" stop-opacity="0"/>
      <stop offset="1"/>
    </linearGradient>
  </defs>
  <g id="Group_26" data-name="Group 26" transform="translate(0.424 -69.36)">
    <g id="Group_25" data-name="Group 25">
      <g id="Ellipse_5" data-name="Ellipse 5" transform="translate(120.809 193.062)" fill="none" stroke="#fff" stroke-width="1">
        <ellipse cx="20.5" cy="21" rx="20.5" ry="21" stroke="none"/>
        <ellipse cx="20.5" cy="21" rx="20" ry="20.5" fill="none"/>
      </g>
      <g id="Ellipse_9" data-name="Ellipse 9" transform="translate(275.809 280.062)" fill="none" stroke="#fff" stroke-width="1">
        <circle cx="21" cy="21" r="21" stroke="none"/>
        <circle cx="21" cy="21" r="20.5" fill="none"/>
      </g>
      <g id="Ellipse_7" data-name="Ellipse 7" transform="translate(290.809 120.062)" fill="none" stroke="#fff" stroke-width="1">
        <ellipse cx="21.5" cy="21" rx="21.5" ry="21" stroke="none"/>
        <ellipse cx="21.5" cy="21" rx="21" ry="20.5" fill="none"/>
      </g>
      <g id="Ellipse_10" data-name="Ellipse 10" transform="translate(444.809 225.062)" fill="none" stroke="#fff" stroke-width="1">
        <ellipse cx="21.5" cy="21" rx="21.5" ry="21" stroke="none"/>
        <ellipse cx="21.5" cy="21" rx="21" ry="20.5" fill="none"/>
      </g>
      <g id="Path_83" data-name="Path 83" transform="translate(111.733 235.176)" fill="none">
        <path d="M30.009,0A30.009,30.009,0,0,1,60.017,30.009C60.017,46.582,0,46.582,0,30.009A30.009,30.009,0,0,1,30.009,0Z" stroke="none"/>
        <path d="M 30.0085563659668 0.9999961853027344 C 26.09198760986328 0.9999961853027344 22.29309463500977 1.766834259033203 18.71742630004883 3.279216766357422 C 15.26322555541992 4.740226745605469 12.16082763671875 6.831985473632813 9.496406555175781 9.496395111083984 C 6.831985473632813 12.16081619262695 4.740226745605469 15.26321601867676 3.279228210449219 18.71740531921387 C 1.766838073730469 22.2930850982666 0.9999961853027344 26.09196472167969 0.9999961853027344 30.00853538513184 C 0.9999961853027344 34.283447265625 5.743705749511719 36.92737579345703 9.723186492919922 38.39257431030273 C 12.40694808959961 39.38070678710938 15.57370758056641 40.147705078125 19.135498046875 40.67227554321289 C 22.58760452270508 41.18068695068359 26.2458381652832 41.4384765625 30.0085563659668 41.4384765625 C 33.77127838134766 41.4384765625 37.42950439453125 41.18068695068359 40.88161468505859 40.67227554321289 C 44.44340515136719 40.147705078125 47.61016845703125 39.38070678710938 50.29392623901367 38.39257431030273 C 54.27340698242188 36.92737579345703 59.01711654663086 34.283447265625 59.01711654663086 30.00853538513184 C 59.01711654663086 26.09196472167969 58.25027465820313 22.2930850982666 56.73788452148438 18.71740531921387 C 55.27688598632813 15.26321601867676 53.18512725830078 12.16081619262695 50.52070617675781 9.496395111083984 C 47.85628509521484 6.831985473632813 44.75388717651367 4.740226745605469 41.29968643188477 3.279216766357422 C 37.72401428222656 1.766834259033203 33.92512512207031 0.9999961853027344 30.0085563659668 0.9999961853027344 M 30.0085563659668 -3.814697265625e-06 C 46.58182525634766 -3.814697265625e-06 60.01711654663086 13.43527603149414 60.01711654663086 30.00853538513184 C 60.01711654663086 38.29515838623047 45.01283645629883 42.43847274780273 30.0085563659668 42.43847274780273 C 15.00427627563477 42.43847274780273 -3.814697265625e-06 38.29515838623047 -3.814697265625e-06 30.00853538513184 C -3.814697265625e-06 13.43527603149414 13.43528747558594 -3.814697265625e-06 30.0085563659668 -3.814697265625e-06 Z" stroke="none" fill="#fff"/>
      </g>
      <g id="Path_87" data-name="Path 87" transform="translate(266.666 322.421)" fill="none">
        <path d="M30.009,0A30.009,30.009,0,0,1,60.017,30.009C60.017,46.582,0,46.582,0,30.009A30.009,30.009,0,0,1,30.009,0Z" stroke="none"/>
        <path d="M 30.0085563659668 0.9999961853027344 C 26.09198760986328 0.9999961853027344 22.29309463500977 1.766834259033203 18.71742630004883 3.279216766357422 C 15.26322555541992 4.740226745605469 12.16082763671875 6.831985473632813 9.496406555175781 9.496395111083984 C 6.831985473632813 12.16081619262695 4.740226745605469 15.26321601867676 3.279228210449219 18.71740531921387 C 1.766838073730469 22.2930850982666 0.9999961853027344 26.09196472167969 0.9999961853027344 30.00853538513184 C 0.9999961853027344 34.283447265625 5.743705749511719 36.92737579345703 9.723186492919922 38.39257431030273 C 12.40694808959961 39.38070678710938 15.57370758056641 40.147705078125 19.135498046875 40.67227554321289 C 22.58760452270508 41.18068695068359 26.2458381652832 41.4384765625 30.0085563659668 41.4384765625 C 33.77127838134766 41.4384765625 37.42950439453125 41.18068695068359 40.88161468505859 40.67227554321289 C 44.44340515136719 40.147705078125 47.61016845703125 39.38070678710938 50.29392623901367 38.39257431030273 C 54.27340698242188 36.92737579345703 59.01711654663086 34.283447265625 59.01711654663086 30.00853538513184 C 59.01711654663086 26.09196472167969 58.25027465820313 22.2930850982666 56.73788452148438 18.71740531921387 C 55.27688598632813 15.26321601867676 53.18512725830078 12.16081619262695 50.52070617675781 9.496395111083984 C 47.85628509521484 6.831985473632813 44.75388717651367 4.740226745605469 41.29968643188477 3.279216766357422 C 37.72401428222656 1.766834259033203 33.92512512207031 0.9999961853027344 30.0085563659668 0.9999961853027344 M 30.0085563659668 -3.814697265625e-06 C 46.58182525634766 -3.814697265625e-06 60.01711654663086 13.43527603149414 60.01711654663086 30.00853538513184 C 60.01711654663086 38.29515838623047 45.01283645629883 42.43847274780273 30.0085563659668 42.43847274780273 C 15.00427627563477 42.43847274780273 -3.814697265625e-06 38.29515838623047 -3.814697265625e-06 30.00853538513184 C -3.814697265625e-06 13.43527603149414 13.43528747558594 -3.814697265625e-06 30.0085563659668 -3.814697265625e-06 Z" stroke="none" fill="#fff"/>
      </g>
      <g id="Path_85" data-name="Path 85" transform="translate(281.708 162.222)" fill="none">
        <path d="M30.009,0A30.009,30.009,0,0,1,60.017,30.009C60.017,46.582,0,46.582,0,30.009A30.009,30.009,0,0,1,30.009,0Z" stroke="none"/>
        <path d="M 30.0085563659668 0.9999961853027344 C 26.09198760986328 0.9999961853027344 22.29309463500977 1.766834259033203 18.71742630004883 3.279216766357422 C 15.26322555541992 4.740226745605469 12.16082763671875 6.831985473632813 9.496406555175781 9.496395111083984 C 6.831985473632813 12.16081619262695 4.740226745605469 15.26321601867676 3.279228210449219 18.71740531921387 C 1.766838073730469 22.2930850982666 0.9999961853027344 26.09196472167969 0.9999961853027344 30.00853538513184 C 0.9999961853027344 34.283447265625 5.743705749511719 36.92737579345703 9.723186492919922 38.39257431030273 C 12.40694808959961 39.38070678710938 15.57370758056641 40.147705078125 19.135498046875 40.67227554321289 C 22.58760452270508 41.18068695068359 26.2458381652832 41.4384765625 30.0085563659668 41.4384765625 C 33.77127838134766 41.4384765625 37.42950439453125 41.18068695068359 40.88161468505859 40.67227554321289 C 44.44340515136719 40.147705078125 47.61016845703125 39.38070678710938 50.29392623901367 38.39257431030273 C 54.27340698242188 36.92737579345703 59.01711654663086 34.283447265625 59.01711654663086 30.00853538513184 C 59.01711654663086 26.09196472167969 58.25027465820313 22.2930850982666 56.73788452148438 18.71740531921387 C 55.27688598632813 15.26321601867676 53.18512725830078 12.16081619262695 50.52070617675781 9.496395111083984 C 47.85628509521484 6.831985473632813 44.75388717651367 4.740226745605469 41.29968643188477 3.279216766357422 C 37.72401428222656 1.766834259033203 33.92512512207031 0.9999961853027344 30.0085563659668 0.9999961853027344 M 30.0085563659668 -3.814697265625e-06 C 46.58182525634766 -3.814697265625e-06 60.01711654663086 13.43527603149414 60.01711654663086 30.00853538513184 C 60.01711654663086 38.29515838623047 45.01283645629883 42.43847274780273 30.0085563659668 42.43847274780273 C 15.00427627563477 42.43847274780273 -3.814697265625e-06 38.29515838623047 -3.814697265625e-06 30.00853538513184 C -3.814697265625e-06 13.43527603149414 13.43528747558594 -3.814697265625e-06 30.0085563659668 -3.814697265625e-06 Z" stroke="none" fill="#fff"/>
      </g>
      <g id="Path_89" data-name="Path 89" transform="translate(435.89 266.765)" fill="none">
        <path d="M30.009,0A30.009,30.009,0,0,1,60.017,30.009C60.017,46.582,0,46.582,0,30.009A30.009,30.009,0,0,1,30.009,0Z" stroke="none"/>
        <path d="M 30.0085563659668 0.9999961853027344 C 26.09198760986328 0.9999961853027344 22.29309463500977 1.766834259033203 18.71742630004883 3.279216766357422 C 15.26322555541992 4.740226745605469 12.16082763671875 6.831985473632813 9.496406555175781 9.496395111083984 C 6.831985473632813 12.16081619262695 4.740226745605469 15.26321601867676 3.279228210449219 18.71740531921387 C 1.766838073730469 22.2930850982666 0.9999961853027344 26.09196472167969 0.9999961853027344 30.00853538513184 C 0.9999961853027344 34.283447265625 5.743705749511719 36.92737579345703 9.723186492919922 38.39257431030273 C 12.40694808959961 39.38070678710938 15.57370758056641 40.147705078125 19.135498046875 40.67227554321289 C 22.58760452270508 41.18068695068359 26.2458381652832 41.4384765625 30.0085563659668 41.4384765625 C 33.77127838134766 41.4384765625 37.42950439453125 41.18068695068359 40.88161468505859 40.67227554321289 C 44.44340515136719 40.147705078125 47.61016845703125 39.38070678710938 50.29392623901367 38.39257431030273 C 54.27340698242188 36.92737579345703 59.01711654663086 34.283447265625 59.01711654663086 30.00853538513184 C 59.01711654663086 26.09196472167969 58.25027465820313 22.2930850982666 56.73788452148438 18.71740531921387 C 55.27688598632813 15.26321601867676 53.18512725830078 12.16081619262695 50.52070617675781 9.496395111083984 C 47.85628509521484 6.831985473632813 44.75388717651367 4.740226745605469 41.29968643188477 3.279216766357422 C 37.72401428222656 1.766834259033203 33.92512512207031 0.9999961853027344 30.0085563659668 0.9999961853027344 M 30.0085563659668 -3.814697265625e-06 C 46.58182525634766 -3.814697265625e-06 60.01711654663086 13.43527603149414 60.01711654663086 30.00853538513184 C 60.01711654663086 38.29515838623047 45.01283645629883 42.43847274780273 30.0085563659668 42.43847274780273 C 15.00427627563477 42.43847274780273 -3.814697265625e-06 38.29515838623047 -3.814697265625e-06 30.00853538513184 C -3.814697265625e-06 13.43527603149414 13.43528747558594 -3.814697265625e-06 30.0085563659668 -3.814697265625e-06 Z" stroke="none" fill="#fff"/>
      </g>
      <g id="Rectangle_14" data-name="Rectangle 14" transform="translate(97.809 174.062)" fill="none" stroke="#fff" stroke-width="1">
        <rect width="90" height="123" rx="20" stroke="none"/>
        <rect x="0.5" y="0.5" width="89" height="122" rx="19.5" fill="none"/>
      </g>
      <g id="Rectangle_16" data-name="Rectangle 16" transform="translate(251.809 261.062)" fill="none" stroke="#fff" stroke-width="1">
        <rect width="91" height="124" rx="20" stroke="none"/>
        <rect x="0.5" y="0.5" width="90" height="123" rx="19.5" fill="none"/>
      </g>
      <g id="Rectangle_15" data-name="Rectangle 15" transform="translate(266.809 101.062)" fill="none" stroke="#fff" stroke-width="1">
        <rect width="91" height="124" rx="20" stroke="none"/>
        <rect x="0.5" y="0.5" width="90" height="123" rx="19.5" fill="none"/>
      </g>
      <g id="Rectangle_17" data-name="Rectangle 17" transform="translate(420.809 205.062)" fill="none" stroke="#fff" stroke-width="1">
        <rect width="91" height="123" rx="20" stroke="none"/>
        <rect x="0.5" y="0.5" width="90" height="122" rx="19.5" fill="none"/>
      </g>
      <ellipse id="Ellipse_6" data-name="Ellipse 6" cx="14.721" cy="14.958" rx="14.721" ry="14.958" transform="translate(147.586 234.402) rotate(-150)" opacity="0.29" fill="url(#linear-gradient)"/>
      <ellipse id="Ellipse_11" data-name="Ellipse 11" cx="14.721" cy="14.958" rx="14.721" ry="14.958" transform="translate(302.52 321.647) rotate(-150)" opacity="0.29" fill="url(#linear-gradient)"/>
      <ellipse id="Ellipse_8" data-name="Ellipse 8" cx="14.721" cy="14.958" rx="14.721" ry="14.958" transform="translate(317.562 161.449) rotate(-150)" opacity="0.29" fill="url(#linear-gradient)"/>
      <ellipse id="Ellipse_12" data-name="Ellipse 12" cx="14.721" cy="14.958" rx="14.721" ry="14.958" transform="translate(471.743 265.991) rotate(-150)" opacity="0.29" fill="url(#linear-gradient)"/>
      <path id="Path_84" data-name="Path 84" d="M24.037,0A24.037,24.037,0,0,1,48.075,24.037C48.075,37.313,0,37.313,0,24.037A24.037,24.037,0,0,1,24.037,0Z" transform="translate(117.704 239.399)" opacity="0.53" fill="url(#linear-gradient-5)"/>
      <path id="Path_88" data-name="Path 88" d="M24.037,0A24.037,24.037,0,0,1,48.075,24.037C48.075,37.313,0,37.313,0,24.037A24.037,24.037,0,0,1,24.037,0Z" transform="translate(272.637 326.643)" opacity="0.53" fill="url(#linear-gradient-5)"/>
      <path id="Path_86" data-name="Path 86" d="M24.037,0A24.037,24.037,0,0,1,48.075,24.037C48.075,37.313,0,37.313,0,24.037A24.037,24.037,0,0,1,24.037,0Z" transform="translate(287.68 166.445)" opacity="0.53" fill="url(#linear-gradient-5)"/>
      <path id="Path_90" data-name="Path 90" d="M24.037,0A24.037,24.037,0,0,1,48.075,24.037C48.075,37.313,0,37.313,0,24.037A24.037,24.037,0,0,1,24.037,0Z" transform="translate(441.861 270.987)" opacity="0.53" fill="url(#linear-gradient-5)"/>
      <g id="Group_23" data-name="Group 23" transform="translate(3.861 281.383) rotate(-39)" opacity="0.5">
        <line id="Line_1" data-name="Line 1" x2="125.052" y2="309.178" transform="translate(0 0)" fill="none" stroke="#fff" stroke-width="1"/>
        <line id="Line_1-2" data-name="Line 1" x2="125.052" y2="309.178" transform="translate(53.585 18.494)" fill="none" stroke="#fff" stroke-width="1"/>
        <line id="Line_1-3" data-name="Line 1" x2="125.052" y2="309.178" transform="translate(107.171 36.987)" fill="none" stroke="#fff" stroke-width="1"/>
        <line id="Line_1-4" data-name="Line 1" x2="125.052" y2="309.178" transform="translate(160.756 55.481)" fill="none" stroke="#fff" stroke-width="1"/>
        <line id="Line_1-5" data-name="Line 1" x2="125.052" y2="309.178" transform="translate(214.341 73.974)" fill="none" stroke="#fff" stroke-width="1"/>
        <line id="Line_1-6" data-name="Line 1" x2="125.052" y2="309.178" transform="translate(267.927 92.468)" fill="none" stroke="#fff" stroke-width="1"/>
        <line id="Line_1-7" data-name="Line 1" x2="125.052" y2="309.178" transform="translate(321.512 110.962)" fill="none" stroke="#fff" stroke-width="1"/>
      </g>
      <g id="Group_24" data-name="Group 24" transform="translate(367.824 0) rotate(51)" opacity="0.5">
        <line id="Line_1-8" data-name="Line 1" x1="125.052" y2="362.339" transform="translate(0 110.962)" fill="none" stroke="#fff" stroke-width="1"/>
        <line id="Line_1-9" data-name="Line 1" x1="125.052" y2="362.339" transform="translate(45.723 92.468)" fill="none" stroke="#fff" stroke-width="1"/>
        <line id="Line_1-10" data-name="Line 1" x1="125.052" y2="362.339" transform="translate(91.447 73.974)" fill="none" stroke="#fff" stroke-width="1"/>
        <line id="Line_1-11" data-name="Line 1" x1="125.052" y2="362.339" transform="translate(137.17 55.481)" fill="none" stroke="#fff" stroke-width="1"/>
        <line id="Line_1-12" data-name="Line 1" x1="125.052" y2="362.339" transform="translate(182.894 36.987)" fill="none" stroke="#fff" stroke-width="1"/>
        <line id="Line_1-13" data-name="Line 1" x1="125.052" y2="362.339" transform="translate(228.617 18.494)" fill="none" stroke="#fff" stroke-width="1"/>
        <line id="Line_1-14" data-name="Line 1" x1="125.052" y2="362.339" transform="translate(274.341 0)" fill="none" stroke="#fff" stroke-width="1"/>
      </g>
    </g>
  </g>
</svg>
