<svg xmlns="http://www.w3.org/2000/svg" width="24" height="21" viewBox="0 0 24 21">
  <g id="telegram" transform="translate(0 0)">
    <path id="XMLID_497_" d="M19.273,21h0a.643.643,0,0,1-.381-.126l-5.559-4.057a.916.916,0,0,0-1.121.031L9.129,19.374a.639.639,0,0,1-.41.148.651.651,0,0,1-.624-.461l-2.14-6.918L.424,10.069A.656.656,0,0,1,.418,8.844l22.7-8.8a.653.653,0,0,1,.873.744L19.913,20.478A.648.648,0,0,1,19.273,21ZM18.658,4.319a.19.19,0,0,0-.1.03L7.749,11.039a1.1,1.1,0,0,0-.475,1.23L8.443,16.4a.279.279,0,0,0,.546-.04l.3-2.263a1.869,1.869,0,0,1,.573-1.112l8.92-8.332a.181.181,0,0,0,.049-.206A.193.193,0,0,0,18.658,4.319Z" fill="#fff"/>
  </g>
</svg>
